<svg class="nav-subitem" version="1.1" xmlns="http://www.w3.org/2000/svg" xmlns:xlink="http://www.w3.org/1999/xlink" viewBox="200 0 1250 1150">
<path fill="rgb(0, 0, 255)" stroke="rgb(0, 0, 255)" d=" M 537.6431081821831 913.0192620356224 C 537.6431081821831 943.9362204378182 512.5799613729494 968.9993672470517 481.66300297075355 968.9993672470517 C 450.7460445685577 968.9993672470517 425.682897759324 943.9362204378182 425.682897759324 913.0192620356224 C 425.682897759324 882.1023036334267 450.7460445685577 857.0391568241931 481.66300297075355 857.0391568241931 C 512.5799613729494 857.0391568241931 537.6431081821831 882.1023036334267 537.6431081821831 913.0192620356224 Z" stroke-opacity="1" stroke-linecap="round" stroke-linejoin="round" stroke-miterlimit="10" stroke-width="50"></path>
<path fill="rgb(0, 0, 255)" stroke="rgb(0, 0, 255)" d=" M 537.6431081821831 577.1386307670466 C 537.6431081821831 608.0555891692424 512.5799613729494 633.1187359784759 481.66300297075355 633.1187359784759 C 450.7460445685577 633.1187359784759 425.682897759324 608.0555891692424 425.682897759324 577.1386307670466 C 425.682897759324 546.2216723648509 450.7460445685577 521.1585255556173 481.66300297075355 521.1585255556173 C 512.5799613729494 521.1585255556173 537.6431081821831 546.2216723648509 537.6431081821831 577.1386307670466 Z" stroke-opacity="1" stroke-linecap="round" stroke-linejoin="round" stroke-miterlimit="10" stroke-width="50"></path>
<path fill="rgb(0, 0, 255)" stroke="rgb(0, 0, 255)" d=" M 537.6431081821831 241.25799949847078 C 537.6431081821831 272.1749579006665 512.5799613729494 297.2381047099001 481.66300297075355 297.2381047099001 C 450.7460445685577 297.2381047099001 425.682897759324 272.1749579006665 425.682897759324 241.25799949847078 C 425.682897759324 210.34104109627506 450.7460445685577 185.27789428704148 481.66300297075355 185.27789428704148 C 512.5799613729494 185.27789428704148 537.6431081821831 210.34104109627506 537.6431081821831 241.25799949847078 Z" stroke-opacity="1" stroke-linecap="round" stroke-linejoin="round" stroke-miterlimit="10" stroke-width="50"></path>
<path fill="rgb(0, 0, 255)" stroke="rgb(0, 0, 255)" d=" M 1209.4043707193375 241.25799949847078 C 1209.4043707193375 272.1749579006665 1184.3412239101037 297.2381047099001 1153.4242655079079 297.2381047099001 C 1122.5073071057122 297.2381047099001 1097.4441602964785 272.1749579006665 1097.4441602964785 241.25799949847078 C 1097.4441602964785 210.34104109627506 1122.5073071057122 185.27789428704148 1153.4242655079079 185.27789428704148 C 1184.3412239101037 185.27789428704148 1209.4043707193375 210.34104109627506 1209.4043707193375 241.25799949847078 Z" stroke-opacity="1" stroke-linecap="round" stroke-linejoin="round" stroke-miterlimit="10" stroke-width="50"></path>
<path fill="rgb(0, 0, 255)" stroke="rgb(0, 0, 255)" d=" M 1209.4043707193375 577.1386307670466 C 1209.4043707193375 608.0555891692424 1184.3412239101037 633.1187359784759 1153.4242655079079 633.1187359784759 C 1122.5073071057122 633.1187359784759 1097.4441602964785 608.0555891692424 1097.4441602964785 577.1386307670466 C 1097.4441602964785 546.2216723648509 1122.5073071057122 521.1585255556173 1153.4242655079079 521.1585255556173 C 1184.3412239101037 521.1585255556173 1209.4043707193375 546.2216723648509 1209.4043707193375 577.1386307670466 Z" stroke-opacity="1" stroke-linecap="round" stroke-linejoin="round" stroke-miterlimit="10" stroke-width="50"></path>
<path fill="rgb(0, 0, 255)" stroke="rgb(0, 0, 255)" d=" M 1209.4043707193375 913.0192620356224 C 1209.4043707193375 943.9362204378182 1184.3412239101037 968.9993672470517 1153.4242655079079 968.9993672470517 C 1122.5073071057122 968.9993672470517 1097.4441602964785 943.9362204378182 1097.4441602964785 913.0192620356224 C 1097.4441602964785 882.1023036334267 1122.5073071057122 857.0391568241931 1153.4242655079079 857.0391568241931 C 1184.3412239101037 857.0391568241931 1209.4043707193375 882.1023036334267 1209.4043707193375 913.0192620356224 Z" stroke-opacity="1" stroke-linecap="round" stroke-linejoin="round" stroke-miterlimit="10" stroke-width="50"></path>
<path fill="none" stroke="rgb(0, 0, 255)" d=" M 1153.4242655079079 577.1386307670466 C 1153.4242655079079 762.6403811802209 1003.0453846525057 913.0192620356224 817.5436342393307 913.0192620356224 C 632.0418838261555 913.0192620356224 481.6630029707535 762.6403811802209 481.6630029707535 577.1386307670466 C 481.6630029707535 391.63688035387224 632.0418838261555 241.25799949847078 817.5436342393307 241.25799949847078 C 1003.0453846525057 241.25799949847078 1153.4242655079079 391.63688035387224 1153.4242655079079 577.1386307670466 Z" stroke-opacity="1" stroke-linecap="round" stroke-linejoin="round" stroke-miterlimit="10" stroke-width="50"></path>
<path fill="none" stroke="rgb(0, 0, 255)" d=" M 257.7425821250354 1136.9396828813396 L 1377.344686353626 1136.9396828813396" stroke-opacity="1" stroke-linecap="round" stroke-linejoin="round" stroke-miterlimit="10" stroke-width="50"></path>
<path fill="none" stroke="rgb(0, 0, 255)" d=" M 257.7425821250354 18.325330606718126 L 257.7425821250354 1136.9396828813396" stroke-opacity="1" stroke-linecap="round" stroke-linejoin="round" stroke-miterlimit="10" stroke-width="50"></path>
<path fill="none" stroke="rgb(0, 0, 255)" d=" M 257.7425821250354 18.325330606718126 L 1377.344686353626 17.337578652753564" stroke-opacity="1" stroke-linecap="round" stroke-linejoin="round" stroke-miterlimit="10" stroke-width="50"></path>
<path fill="none" stroke="rgb(0, 0, 255)" d=" M 1377.344686353626 17.337578652753564 L 1377.344686353626 1136.9396828813396" stroke-opacity="1" stroke-linecap="round" stroke-linejoin="round" stroke-miterlimit="10" stroke-width="50"></path>
<path fill="none" stroke="rgb(0, 0, 255)" d=" M 620.117952648975 490.2063265136818 L 747.7101242793444 490.2063265136818" stroke-opacity="1" stroke-linecap="round" stroke-linejoin="round" stroke-miterlimit="10" stroke-width="50"></path>
<path fill="none" stroke="rgb(0, 0, 255)" d=" M 887.3771441993172 490.2063265136818 L 1014.9693158296866 490.2063265136818" stroke-opacity="1" stroke-linecap="round" stroke-linejoin="round" stroke-miterlimit="10" stroke-width="50"></path>
<path fill="none" stroke="rgb(0, 0, 255)" d=" M 683.9140384641597 745.0789464013344 L 951.1732300145018 745.0789464013344" stroke-opacity="1" stroke-linecap="round" stroke-linejoin="round" stroke-miterlimit="10" stroke-width="50"></path>
<path fill="none" stroke="rgb(0, 0, 255)" d=" M 683.9140384641597 745.0789464013344 L 951.1732300145018 745.0789464013344" stroke-opacity="1" stroke-linecap="round" stroke-linejoin="round" stroke-miterlimit="10" stroke-width="50"></path>
</svg>